<svg version="1.1" xmlns="http://www.w3.org/2000/svg" xmlns:xlink="http://www.w3.org/1999/xlink" width="779" height="534"><defs><linearGradient id="Lkn75HFuRlBw" x1="0px" x2="0px" y1="100px" y2="-50px" gradientUnits="userSpaceOnUse"><stop offset="0" stop-color="#DADADA"/><stop offset="1" stop-color="#FFFFFF"/></linearGradient><linearGradient id="5ROeQF72wxfv" x1="0px" x2="0px" y1="100px" y2="-50px" gradientUnits="userSpaceOnUse"><stop offset="0" stop-color="#DADADA"/><stop offset="1" stop-color="#FFFFFF"/></linearGradient><linearGradient id="J40iwI8ltscx" x1="0px" x2="0px" y1="100px" y2="-50px" gradientUnits="userSpaceOnUse"><stop offset="0" stop-color="#DADADA"/><stop offset="1" stop-color="#FFFFFF"/></linearGradient><linearGradient id="8IMEKeF48vbf" x1="0px" x2="0px" y1="100px" y2="-50px" gradientUnits="userSpaceOnUse"><stop offset="0" stop-color="#DADADA"/><stop offset="1" stop-color="#FFFFFF"/></linearGradient></defs><g transform="translate(0,0)"><g><rect fill="#FFFFFF" stroke="none" x="0" y="0" width="779" height="534"/></g><g transform="translate(0,0) matrix(1,0,0,1,69,4)"><g><g transform="translate(0,0) scale(6.9,5.1)"><g><path fill="#FFFFFF" stroke="none" d="M 0 0 L 100 0 Q 100 0 100 0 L 100 100 Q 100 100 100 100 L 0 100 Q 0 100 0 100 L 0 0 Q 0 0 0 0 Z"/><g transform="scale(0.14492753623188406,0.19607843137254904)"><path fill="none" stroke="#BBBBBB" d="M 0 0 L 690 0 Q 690 0 690 0 L 690 509.99999999999994 Q 690 509.99999999999994 690 509.99999999999994 L 0 509.99999999999994 Q 0 509.99999999999994 0 509.99999999999994 L 0 0 Q 0 0 0 0 Z" stroke-miterlimit="10" stroke-width="2"/></g></g></g></g></g><g transform="translate(0,0) matrix(1,0,0,1,69,4)"><g><g transform="translate(0,0) scale(6.9,0.3)"><g><path fill="#EEEEEE" stroke="none" d="M 0 0 L 100 0 Q 100 0 100 0 L 100 100 Q 100 100 100 100 L 0 100 Q 0 100 0 100 L 0 0 Q 0 0 0 0 Z"/><g transform="scale(0.14492753623188406,3.3333333333333335)"><path fill="none" stroke="#BBBBBB" d="M 0 0 L 690 0 Q 690 0 690 0 L 690 30 Q 690 30 690 30 L 0 30 Q 0 30 0 30 L 0 0 Q 0 0 0 0 Z" stroke-miterlimit="10" stroke-width="2"/></g></g></g></g></g><g transform="scale(1,1) matrix(1,0,0,1,69,4) translate(293.5,10)"><text fill="rgb(102, 102, 102)" stroke="none" font-family="Helvetica" font-size="13px" font-style="normal" font-weight="normal" text-decoration="none" x="4" y="11">Web Page Title</text></g><g transform="translate(0,0) matrix(1,0,0,1,69,34)"><g><g transform="translate(0,0) scale(6.9,0.38)"><g><path fill="#EEEEEE" stroke="none" d="M 0 0 L 100 0 Q 100 0 100 0 L 100 100 Q 100 100 100 100 L 0 100 Q 0 100 0 100 L 0 0 Q 0 0 0 0 Z"/><g transform="scale(0.14492753623188406,2.6315789473684212)"><path fill="none" stroke="#BBBBBB" d="M 0 0 L 690 0 Q 690 0 690 0 L 690 38 Q 690 38 690 38 L 0 38 Q 0 38 0 38 L 0 0 Q 0 0 0 0 Z" stroke-miterlimit="10" stroke-width="2"/></g></g></g></g></g><g transform="translate(0.5,0.5) matrix(1,0,0,1,79,44)"><g><g transform="translate(0,0) scale(0.9955692516110543,0.9998000399920016) translate(-13.219,-74.093)"><g><path fill="#666666" stroke="rgb(0,0,0)" d="M 13.501 82.266 C 13.314 82.08 13.219 81.857 13.219 81.606 C 13.219 81.351 13.315 81.129 13.501 80.941 L 20.056 74.38 C 20.242 74.19 20.466 74.093 20.719 74.093 C 20.973 74.093 21.197 74.189 21.383 74.38 L 22.362 75.355 C 22.55 75.541 22.644 75.76 22.644 76.011 C 22.644 76.262 22.551 76.481 22.362 76.671 L 19.061 79.965 L 27.285 79.965 C 27.552 79.965 27.775 80.053 27.953 80.233 C 28.13 80.413 28.221 80.635 28.221 80.901 L 28.221 82.306 C 28.221 82.56 28.13 82.775 27.953 82.954 C 27.774 83.134 27.556 83.225 27.304 83.225 L 19.06 83.225 L 22.361 86.519 C 22.549 86.707 22.643 86.93 22.643 87.18 C 22.643 87.426 22.549 87.649 22.361 87.836 L 21.382 88.811 C 21.196 88.999 20.972 89.094 20.718 89.094 C 20.466 89.094 20.242 88.999 20.055 88.811 L 13.501 82.266 L 13.501 82.266 Z" stroke-opacity="0" stroke-miterlimit="10"/></g><g><path fill="#666666" stroke="rgb(0,0,0)" d="M 57.939 80.922 C 58.126 81.108 58.222 81.331 58.222 81.582 C 58.222 81.837 58.126 82.059 57.939 82.247 L 51.383 88.808 C 51.198 88.998 50.973 89.094 50.721 89.094 C 50.468 89.094 50.243 88.998 50.057 88.808 L 49.078 87.832 C 48.889 87.646 48.796 87.427 48.796 87.177 C 48.796 86.926 48.889 86.707 49.078 86.517 L 52.378 83.223 L 44.156 83.223 C 43.889 83.223 43.665 83.135 43.487 82.955 C 43.31 82.775 43.22 82.554 43.22 82.287 L 43.22 80.883 C 43.22 80.629 43.31 80.414 43.487 80.235 C 43.666 80.055 43.884 79.964 44.137 79.964 L 52.379 79.964 L 49.079 76.67 C 48.891 76.482 48.798 76.26 48.798 76.009 C 48.798 75.763 48.891 75.54 49.079 75.353 L 50.058 74.378 C 50.244 74.19 50.469 74.095 50.722 74.095 C 50.974 74.095 51.199 74.19 51.385 74.378 L 57.939 80.922 L 57.939 80.922 Z" stroke-opacity="0" stroke-miterlimit="10"/></g><g><path fill="#666666" stroke="rgb(0,0,0)" d="M 88.928 75.344 L 88.928 79.719 C 88.928 79.889 88.865 80.035 88.742 80.159 C 88.617 80.283 88.472 80.345 88.302 80.345 L 83.927 80.345 C 83.655 80.345 83.462 80.215 83.351 79.954 C 83.24 79.7 83.286 79.475 83.488 79.28 L 84.836 77.932 C 83.873 77.04 82.737 76.595 81.429 76.595 C 80.751 76.595 80.105 76.726 79.49 76.991 C 78.874 77.255 78.343 77.612 77.893 78.06 C 77.444 78.51 77.087 79.041 76.824 79.657 C 76.56 80.273 76.428 80.918 76.428 81.595 C 76.428 82.272 76.56 82.919 76.824 83.534 C 77.088 84.149 77.444 84.681 77.893 85.131 C 78.342 85.58 78.874 85.937 79.49 86.2 C 80.106 86.464 80.752 86.596 81.429 86.596 C 82.203 86.596 82.935 86.426 83.626 86.088 C 84.316 85.75 84.898 85.271 85.374 84.652 C 85.419 84.588 85.495 84.548 85.598 84.535 C 85.689 84.535 85.771 84.564 85.842 84.623 L 87.18 85.971 C 87.239 86.023 87.269 86.09 87.273 86.172 C 87.275 86.253 87.252 86.326 87.2 86.391 C 86.49 87.25 85.63 87.916 84.622 88.388 C 83.613 88.86 82.549 89.096 81.429 89.096 C 80.412 89.096 79.443 88.897 78.518 88.5 C 77.593 88.103 76.795 87.568 76.125 86.898 C 75.454 86.228 74.92 85.43 74.523 84.505 C 74.127 83.582 73.928 82.611 73.928 81.595 C 73.928 80.579 74.127 79.609 74.523 78.685 C 74.92 77.761 75.454 76.963 76.125 76.293 C 76.795 75.623 77.593 75.088 78.518 74.691 C 79.442 74.295 80.412 74.095 81.429 74.095 C 82.385 74.095 83.312 74.276 84.206 74.637 C 85.1 74.998 85.897 75.508 86.594 76.166 L 87.864 74.906 C 88.052 74.704 88.28 74.659 88.548 74.769 C 88.8 74.878 88.928 75.07 88.928 75.344 Z" stroke-opacity="0" stroke-miterlimit="10"/></g><g><path fill="#666666" stroke="rgb(0,0,0)" d="M 120.481 81.873 L 113.008 74.392 C 112.625 73.995 112 73.995 111.618 74.392 L 104.143 81.873 C 103.76 82.269 103.902 82.594 104.459 82.594 L 106.018 82.594 L 106.018 88.341 C 106.018 88.755 106.036 89.094 106.787 89.094 L 110.414 89.094 L 110.414 83.33 L 114.21 83.33 L 114.21 89.095 L 118.019 89.095 C 118.59 89.095 118.606 88.757 118.606 88.342 L 118.606 82.595 L 120.164 82.595 C 120.72 82.594 120.863 82.27 120.481 81.873 Z" stroke-opacity="0" stroke-miterlimit="10"/></g></g></g></g><g transform="translate(0.5,0.5) matrix(1,0,0,1,549,41)"><g><g transform="translate(0,0) scale(1,1) translate(-805.779,-69.524)"><g><path fill="#FFFFFF" stroke="#BBBBBB" d="M 805.779 69.524 L 1005.779 69.524 Q 1005.779 69.524 1005.779 69.524 L 1005.779 93.524 Q 1005.779 93.524 1005.779 93.524 L 805.779 93.524 Q 805.779 93.524 805.779 93.524 L 805.779 69.524 Q 805.779 69.524 805.779 69.524 Z" stroke-miterlimit="10"/></g><g><path fill="#BBBBBB" stroke="rgb(0,0,0)" d="M 826.846 87.041 L 823.354 83.549 C 823.989 82.54 824.362 81.352 824.362 80.07 C 824.362 76.455 821.432 73.524 817.821 73.524 C 814.212 73.524 811.28 76.455 811.28 80.07 C 811.28 83.684 814.212 86.613 817.821 86.613 C 819.1 86.613 820.292 86.24 821.3 85.605 L 824.79 89.098 C 825.073 89.381 825.444 89.524 825.815 89.524 C 826.188 89.524 826.559 89.381 826.846 89.098 C 827.41 88.529 827.41 87.607 826.846 87.041 Z M 813.461 80.069 C 813.461 77.664 815.416 75.706 817.82 75.706 C 820.222 75.706 822.179 77.664 822.179 80.069 C 822.179 82.475 820.222 84.432 817.82 84.432 C 815.416 84.432 813.461 82.475 813.461 80.069 Z" stroke-opacity="0" stroke-miterlimit="10"/></g></g></g></g><g transform="translate(0.5,0.5) matrix(1,0,0,1,199,41)"><g><g transform="translate(0,0) scale(3.4,0.24)"><g><path fill="#FFFFFF" stroke="none" d="M 0 0 L 100 0 Q 100 0 100 0 L 100 100 Q 100 100 100 100 L 0 100 Q 0 100 0 100 L 0 0 Q 0 0 0 0 Z"/><g transform="scale(0.29411764705882354,4.166666666666667)"><path fill="none" stroke="#BBBBBB" d="M 0 0 L 340 0 Q 340 0 340 0 L 340 24 Q 340 24 340 24 L 0 24 Q 0 24 0 24 L 0 0 Q 0 0 0 0 Z" stroke-miterlimit="10"/></g></g></g></g></g><g transform="translate(0,0) matrix(1,0,0,1,80,150)"><g><g transform="translate(0,0) scale(1.5,2.5)"><g><path fill="#FFFFFF" stroke="none" d="M 0 0 L 100 0 Q 100 0 100 0 L 100 100 Q 100 100 100 100 L 0 100 Q 0 100 0 100 L 0 0 Q 0 0 0 0 Z"/><g transform="scale(0.6666666666666666,0.4)"><path fill="none" stroke="none" d="M 0 0 L 150 0 Q 150 0 150 0 L 150 250 Q 150 250 150 250 L 0 250 Q 0 250 0 250 L 0 0 Q 0 0 0 0 Z"/><path fill="none" stroke="#BBBBBB" d="M 0 0 M 0 0 L 150 0 Q 150 0 150 0 L 150 250 Q 150 250 150 250 L 0 250 Q 0 250 0 250 L 0 0 Q 0 0 0 0 Z" stroke-miterlimit="10" stroke-width="2"/></g></g><g><g transform="scale(0.6666666666666666,0.4)"><path fill="rgb(0,0,0)" stroke="none" d="M 3 5 L 3 242.5 L 145.5 242.5 L 145.5 7.5 L 4.5 7.5 Z" fill-opacity="0" opacity="0"/><path fill="none" stroke="#3C7626" d="M 3 5 M 3 5 L 3 9 M 3 9 M 3 11 L 3 15 M 3 15 M 3 17 L 3 21 M 3 21 M 3 23 L 3 27 M 3 27 M 3 29 L 3 33 M 3 33 M 3 35 L 3 39 M 3 39 M 3 41 L 3 45 M 3 45 M 3 47 L 3 51 M 3 51 M 3 53 L 3 57 M 3 57 M 3 59 L 3 63 M 3 63 M 3 65 L 3 69 M 3 69 M 3 71 L 3 75 M 3 75 M 3 77 L 3 81 M 3 81 M 3 83 L 3 87 M 3 87 M 3 89 L 3 93 M 3 93 M 3 95 L 3 99 M 3 99 M 3 101 L 3 105 M 3 105 M 3 107 L 3 111 M 3 111 M 3 113 L 3 117 M 3 117 M 3 119 L 3 123 M 3 123 M 3 125 L 3 129 M 3 129 M 3 131 L 3 135 M 3 135 M 3 137 L 3 141 M 3 141 M 3 143 L 3 147 M 3 147 M 3 149 L 3 153 M 3 153 M 3 155 L 3 159 M 3 159 M 3 161 L 3 165 M 3 165 M 3 167 L 3 171 M 3 171 M 3 173 L 3 177 M 3 177 M 3 179 L 3 183 M 3 183 M 3 185 L 3 189 M 3 189 M 3 191 L 3 195 M 3 195 M 3 197 L 3 201 M 3 201 M 3 203 L 3 207 M 3 207 M 3 209 L 3 213 M 3 213 M 3 215 L 3 219 M 3 219 M 3 221 L 3 225 M 3 225 M 3 227 L 3 231 M 3 231 M 3 233 L 3 237 M 3 237 M 3 239 L 3 242.5 L 3.5 242.5 M 3.5 242.5 M 5.5 242.5 L 9.5 242.5 M 9.5 242.5 M 11.5 242.5 L 15.5 242.5 M 15.5 242.5 M 17.5 242.5 L 21.5 242.5 M 21.5 242.5 M 23.5 242.5 L 27.5 242.5 M 27.5 242.5 M 29.5 242.5 L 33.5 242.5 M 33.5 242.5 M 35.5 242.5 L 39.5 242.5 M 39.5 242.5 M 41.5 242.5 L 45.5 242.5 M 45.5 242.5 M 47.5 242.5 L 51.5 242.5 M 51.5 242.5 M 53.5 242.5 L 57.5 242.5 M 57.5 242.5 M 59.5 242.5 L 63.5 242.5 M 63.5 242.5 M 65.5 242.5 L 69.5 242.5 M 69.5 242.5 M 71.5 242.5 L 75.5 242.5 M 75.5 242.5 M 77.5 242.5 L 81.5 242.5 M 81.5 242.5 M 83.5 242.5 L 87.5 242.5 M 87.5 242.5 M 89.5 242.5 L 93.5 242.5 M 93.5 242.5 M 95.5 242.5 L 99.5 242.5 M 99.5 242.5 M 101.5 242.5 L 105.5 242.5 M 105.5 242.5 M 107.5 242.5 L 111.5 242.5 M 111.5 242.5 M 113.5 242.5 L 117.5 242.5 M 117.5 242.5 M 119.5 242.5 L 123.5 242.5 M 123.5 242.5 M 125.5 242.5 L 129.5 242.5 M 129.5 242.5 M 131.5 242.5 L 135.5 242.5 M 135.5 242.5 M 137.5 242.5 L 141.5 242.5 M 141.5 242.5 M 143.5 242.5 L 145.5 242.5 L 145.5 240.5 M 145.5 240.5 M 145.5 238.5 L 145.5 234.5 M 145.5 234.5 M 145.5 232.5 L 145.5 228.5 M 145.5 228.5 M 145.5 226.5 L 145.5 222.5 M 145.5 222.5 M 145.5 220.5 L 145.5 216.5 M 145.5 216.5 M 145.5 214.5 L 145.5 210.5 M 145.5 210.5 M 145.5 208.5 L 145.5 204.5 M 145.5 204.5 M 145.5 202.5 L 145.5 198.5 M 145.5 198.5 M 145.5 196.5 L 145.5 192.5 M 145.5 192.5 M 145.5 190.5 L 145.5 186.5 M 145.5 186.5 M 145.5 184.5 L 145.5 180.5 M 145.5 180.5 M 145.5 178.5 L 145.5 174.5 M 145.5 174.5 M 145.5 172.5 L 145.5 168.5 M 145.5 168.5 M 145.5 166.5 L 145.5 162.5 M 145.5 162.5 M 145.5 160.5 L 145.5 156.5 M 145.5 156.5 M 145.5 154.5 L 145.5 150.5 M 145.5 150.5 M 145.5 148.5 L 145.5 144.5 M 145.5 144.5 M 145.5 142.5 L 145.5 138.5 M 145.5 138.5 M 145.5 136.5 L 145.5 132.5 M 145.5 132.5 M 145.5 130.5 L 145.5 126.5 M 145.5 126.5 M 145.5 124.5 L 145.5 120.5 M 145.5 120.5 M 145.5 118.5 L 145.5 114.5 M 145.5 114.5 M 145.5 112.5 L 145.5 108.5 M 145.5 108.5 M 145.5 106.5 L 145.5 102.5 M 145.5 102.5 M 145.5 100.5 L 145.5 96.5 M 145.5 96.5 M 145.5 94.5 L 145.5 90.5 M 145.5 90.5 M 145.5 88.5 L 145.5 84.5 M 145.5 84.5 M 145.5 82.5 L 145.5 78.5 M 145.5 78.5 M 145.5 76.5 L 145.5 72.5 M 145.5 72.5 M 145.5 70.5 L 145.5 66.5 M 145.5 66.5 M 145.5 64.5 L 145.5 60.5 M 145.5 60.5 M 145.5 58.5 L 145.5 54.5 M 145.5 54.5 M 145.5 52.5 L 145.5 48.5 M 145.5 48.5 M 145.5 46.5 L 145.5 42.5 M 145.5 42.5 M 145.5 40.5 L 145.5 36.5 M 145.5 36.5 M 145.5 34.5 L 145.5 30.5 M 145.5 30.5 M 145.5 28.5 L 145.5 24.5 M 145.5 24.5 M 145.5 22.5 L 145.5 18.5 M 145.5 18.5 M 145.5 16.5 L 145.5 12.5 M 145.5 12.5 M 145.5 10.5 L 145.5 7.5 L 144.5 7.5 M 144.5 7.5 M 142.5 7.5 L 138.5 7.5 M 138.5 7.5 M 136.5 7.5 L 132.5 7.5 M 132.5 7.5 M 130.5 7.5 L 126.5 7.5 M 126.5 7.5 M 124.5 7.5 L 120.5 7.5 M 120.5 7.5 M 118.5 7.5 L 114.5 7.5 M 114.5 7.5 M 112.5 7.5 L 108.5 7.5 M 108.5 7.5 M 106.5 7.5 L 102.5 7.5 M 102.5 7.5 M 100.5 7.5 L 96.5 7.5 M 96.5 7.5 M 94.5 7.5 L 90.5 7.5 M 90.5 7.5 M 88.5 7.5 L 84.5 7.5 M 84.5 7.5 M 82.5 7.5 L 78.5 7.5 M 78.5 7.5 M 76.5 7.5 L 72.5 7.5 M 72.5 7.5 M 70.5 7.5 L 66.5 7.5 M 66.5 7.5 M 64.5 7.5 L 60.5 7.5 M 60.5 7.5 M 58.5 7.5 L 54.5 7.5 M 54.5 7.5 M 52.5 7.5 L 48.5 7.5 M 48.5 7.5 M 46.5 7.5 L 42.5 7.5 M 42.5 7.5 M 40.5 7.5 L 36.5 7.5 M 36.5 7.5 M 34.5 7.5 L 30.5 7.5 M 30.5 7.5 M 28.5 7.5 L 24.5 7.5 M 24.5 7.5 M 22.5 7.5 L 18.5 7.5 M 18.5 7.5 M 16.5 7.5 L 12.5 7.5 M 12.5 7.5 M 10.5 7.5 L 6.5 7.5 M 6.5 7.5 M 4.5 7.5 L 4.5 7.5 Z" stroke-miterlimit="10" stroke-width="2" opacity="0"/></g></g></g></g></g><g transform="scale(1,1) matrix(1,0,0,1,82,150) translate(2,118)"><text fill="#000000" stroke="none" font-family="Arial" font-size="12px" font-style="normal" font-weight="normal" text-decoration="none" x="38.5" y="11">Bingo caller</text></g><g transform="translate(0.5,0.5) matrix(1,0,0,1,314,150)"><g><g transform="translate(0,0) scale(4.1,3)"><g><g transform="scale(0.24390243902439027,0.3333333333333333)"><path fill="rgb(0,0,0)" stroke="none" d="M 0 0 L 409.99999999999994 0 L 409.99999999999994 300 L 0 300 L 0 0" fill-opacity="0"/><path fill="none" stroke="#000000" d="M 0 0 M 0 0 L 3 0 M 3 0 M 8 0 L 11 0 M 11 0 M 16 0 L 19 0 M 19 0 M 24 0 L 27 0 M 27 0 M 32 0 L 35 0 M 35 0 M 40 0 L 43 0 M 43 0 M 48 0 L 51 0 M 51 0 M 56 0 L 59 0 M 59 0 M 64 0 L 67 0 M 67 0 M 72 0 L 75 0 M 75 0 M 80 0 L 83 0 M 83 0 M 88 0 L 91 0 M 91 0 M 96 0 L 99 0 M 99 0 M 104 0 L 107 0 M 107 0 M 112 0 L 115 0 M 115 0 M 120 0 L 123 0 M 123 0 M 128 0 L 131 0 M 131 0 M 136 0 L 139 0 M 139 0 M 144 0 L 147 0 M 147 0 M 152 0 L 155 0 M 155 0 M 160 0 L 163 0 M 163 0 M 168 0 L 171 0 M 171 0 M 176 0 L 179 0 M 179 0 M 184 0 L 187 0 M 187 0 M 192 0 L 195 0 M 195 0 M 200 0 L 203 0 M 203 0 M 208 0 L 211 0 M 211 0 M 216 0 L 219 0 M 219 0 M 224 0 L 227 0 M 227 0 M 232 0 L 235 0 M 235 0 M 240 0 L 243 0 M 243 0 M 248 0 L 251 0 M 251 0 M 256 0 L 259 0 M 259 0 M 264 0 L 267 0 M 267 0 M 272 0 L 275 0 M 275 0 M 280 0 L 283 0 M 283 0 M 288 0 L 291 0 M 291 0 M 296 0 L 299 0 M 299 0 M 304 0 L 307 0 M 307 0 M 312 0 L 315 0 M 315 0 M 320 0 L 323 0 M 323 0 M 328 0 L 331 0 M 331 0 M 336 0 L 339 0 M 339 0 M 344 0 L 347 0 M 347 0 M 352 0 L 355 0 M 355 0 M 360 0 L 363 0 M 363 0 M 368 0 L 371 0 M 371 0 M 376 0 L 379 0 M 379 0 M 384 0 L 387 0 M 387 0 M 392 0 L 395 0 M 395 0 M 400 0 L 403 0 M 403 0 M 408 0 L 409.99999999999994 0 L 409.99999999999994 1.0000000000000568 M 409.99999999999994 1.0000000000000568 M 409.99999999999994 6.000000000000057 L 409.99999999999994 9.000000000000057 M 409.99999999999994 9.000000000000057 M 409.99999999999994 14.000000000000057 L 409.99999999999994 17.000000000000057 M 409.99999999999994 17.000000000000057 M 409.99999999999994 22.000000000000057 L 409.99999999999994 25.000000000000057 M 409.99999999999994 25.000000000000057 M 409.99999999999994 30.000000000000057 L 409.99999999999994 33.00000000000006 M 409.99999999999994 33.00000000000006 M 409.99999999999994 38.00000000000006 L 409.99999999999994 41.00000000000006 M 409.99999999999994 41.00000000000006 M 409.99999999999994 46.00000000000006 L 409.99999999999994 49.00000000000006 M 409.99999999999994 49.00000000000006 M 409.99999999999994 54.00000000000006 L 409.99999999999994 57.00000000000006 M 409.99999999999994 57.00000000000006 M 409.99999999999994 62.00000000000006 L 409.99999999999994 65.00000000000006 M 409.99999999999994 65.00000000000006 M 409.99999999999994 70.00000000000006 L 409.99999999999994 73.00000000000006 M 409.99999999999994 73.00000000000006 M 409.99999999999994 78.00000000000006 L 409.99999999999994 81.00000000000006 M 409.99999999999994 81.00000000000006 M 409.99999999999994 86.00000000000006 L 409.99999999999994 89.00000000000006 M 409.99999999999994 89.00000000000006 M 409.99999999999994 94.00000000000006 L 409.99999999999994 97.00000000000006 M 409.99999999999994 97.00000000000006 M 409.99999999999994 102.00000000000006 L 409.99999999999994 105.00000000000006 M 409.99999999999994 105.00000000000006 M 409.99999999999994 110.00000000000006 L 409.99999999999994 113.00000000000006 M 409.99999999999994 113.00000000000006 M 409.99999999999994 118.00000000000006 L 409.99999999999994 121.00000000000006 M 409.99999999999994 121.00000000000006 M 409.99999999999994 126.00000000000006 L 409.99999999999994 129.00000000000006 M 409.99999999999994 129.00000000000006 M 409.99999999999994 134.00000000000006 L 409.99999999999994 137.00000000000006 M 409.99999999999994 137.00000000000006 M 409.99999999999994 142.00000000000006 L 409.99999999999994 145.00000000000006 M 409.99999999999994 145.00000000000006 M 409.99999999999994 150.00000000000006 L 409.99999999999994 153.00000000000006 M 409.99999999999994 153.00000000000006 M 409.99999999999994 158.00000000000006 L 409.99999999999994 161.00000000000006 M 409.99999999999994 161.00000000000006 M 409.99999999999994 166.00000000000006 L 409.99999999999994 169.00000000000006 M 409.99999999999994 169.00000000000006 M 409.99999999999994 174.00000000000006 L 409.99999999999994 177.00000000000006 M 409.99999999999994 177.00000000000006 M 409.99999999999994 182.00000000000006 L 409.99999999999994 185.00000000000006 M 409.99999999999994 185.00000000000006 M 409.99999999999994 190.00000000000006 L 409.99999999999994 193.00000000000006 M 409.99999999999994 193.00000000000006 M 409.99999999999994 198.00000000000006 L 409.99999999999994 201.00000000000006 M 409.99999999999994 201.00000000000006 M 409.99999999999994 206.00000000000006 L 409.99999999999994 209.00000000000006 M 409.99999999999994 209.00000000000006 M 409.99999999999994 214.00000000000006 L 409.99999999999994 217.00000000000006 M 409.99999999999994 217.00000000000006 M 409.99999999999994 222.00000000000006 L 409.99999999999994 225.00000000000006 M 409.99999999999994 225.00000000000006 M 409.99999999999994 230.00000000000006 L 409.99999999999994 233.00000000000006 M 409.99999999999994 233.00000000000006 M 409.99999999999994 238.00000000000006 L 409.99999999999994 241.00000000000006 M 409.99999999999994 241.00000000000006 M 409.99999999999994 246.00000000000006 L 409.99999999999994 249.00000000000006 M 409.99999999999994 249.00000000000006 M 409.99999999999994 254.00000000000006 L 409.99999999999994 257.00000000000006 M 409.99999999999994 257.00000000000006 M 409.99999999999994 262.00000000000006 L 409.99999999999994 265.00000000000006 M 409.99999999999994 265.00000000000006 M 409.99999999999994 270.00000000000006 L 409.99999999999994 273.00000000000006 M 409.99999999999994 273.00000000000006 M 409.99999999999994 278.00000000000006 L 409.99999999999994 281.00000000000006 M 409.99999999999994 281.00000000000006 M 409.99999999999994 286.00000000000006 L 409.99999999999994 289.00000000000006 M 409.99999999999994 289.00000000000006 M 409.99999999999994 294.00000000000006 L 409.99999999999994 297.00000000000006 M 409.99999999999994 297.00000000000006 M 407.9999999999999 300 L 404.9999999999999 300 M 404.9999999999999 300 M 399.9999999999999 300 L 396.9999999999999 300 M 396.9999999999999 300 M 391.9999999999999 300 L 388.9999999999999 300 M 388.9999999999999 300 M 383.9999999999999 300 L 380.9999999999999 300 M 380.9999999999999 300 M 375.9999999999999 300 L 372.9999999999999 300 M 372.9999999999999 300 M 367.9999999999999 300 L 364.9999999999999 300 M 364.9999999999999 300 M 359.9999999999999 300 L 356.9999999999999 300 M 356.9999999999999 300 M 351.9999999999999 300 L 348.9999999999999 300 M 348.9999999999999 300 M 343.9999999999999 300 L 340.9999999999999 300 M 340.9999999999999 300 M 335.9999999999999 300 L 332.9999999999999 300 M 332.9999999999999 300 M 327.9999999999999 300 L 324.9999999999999 300 M 324.9999999999999 300 M 319.9999999999999 300 L 316.9999999999999 300 M 316.9999999999999 300 M 311.9999999999999 300 L 308.9999999999999 300 M 308.9999999999999 300 M 303.9999999999999 300 L 300.9999999999999 300 M 300.9999999999999 300 M 295.9999999999999 300 L 292.9999999999999 300 M 292.9999999999999 300 M 287.9999999999999 300 L 284.9999999999999 300 M 284.9999999999999 300 M 279.9999999999999 300 L 276.9999999999999 300 M 276.9999999999999 300 M 271.9999999999999 300 L 268.9999999999999 300 M 268.9999999999999 300 M 263.9999999999999 300 L 260.9999999999999 300 M 260.9999999999999 300 M 255.9999999999999 300 L 252.9999999999999 300 M 252.9999999999999 300 M 247.9999999999999 300 L 244.9999999999999 300 M 244.9999999999999 300 M 239.9999999999999 300 L 236.9999999999999 300 M 236.9999999999999 300 M 231.9999999999999 300 L 228.9999999999999 300 M 228.9999999999999 300 M 223.9999999999999 300 L 220.9999999999999 300 M 220.9999999999999 300 M 215.9999999999999 300 L 212.9999999999999 300 M 212.9999999999999 300 M 207.9999999999999 300 L 204.9999999999999 300 M 204.9999999999999 300 M 199.9999999999999 300 L 196.9999999999999 300 M 196.9999999999999 300 M 191.9999999999999 300 L 188.9999999999999 300 M 188.9999999999999 300 M 183.9999999999999 300 L 180.9999999999999 300 M 180.9999999999999 300 M 175.9999999999999 300 L 172.9999999999999 300 M 172.9999999999999 300 M 167.9999999999999 300 L 164.9999999999999 300 M 164.9999999999999 300 M 159.9999999999999 300 L 156.9999999999999 300 M 156.9999999999999 300 M 151.9999999999999 300 L 148.9999999999999 300 M 148.9999999999999 300 M 143.9999999999999 300 L 140.9999999999999 300 M 140.9999999999999 300 M 135.9999999999999 300 L 132.9999999999999 300 M 132.9999999999999 300 M 127.99999999999989 300 L 124.99999999999989 300 M 124.99999999999989 300 M 119.99999999999989 300 L 116.99999999999989 300 M 116.99999999999989 300 M 111.99999999999989 300 L 108.99999999999989 300 M 108.99999999999989 300 M 103.99999999999989 300 L 100.99999999999989 300 M 100.99999999999989 300 M 95.99999999999989 300 L 92.99999999999989 300 M 92.99999999999989 300 M 87.99999999999989 300 L 84.99999999999989 300 M 84.99999999999989 300 M 79.99999999999989 300 L 76.99999999999989 300 M 76.99999999999989 300 M 71.99999999999989 300 L 68.99999999999989 300 M 68.99999999999989 300 M 63.999999999999886 300 L 60.999999999999886 300 M 60.999999999999886 300 M 55.999999999999886 300 L 52.999999999999886 300 M 52.999999999999886 300 M 47.999999999999886 300 L 44.999999999999886 300 M 44.999999999999886 300 M 39.999999999999886 300 L 36.999999999999886 300 M 36.999999999999886 300 M 31.999999999999886 300 L 28.999999999999886 300 M 28.999999999999886 300 M 23.999999999999886 300 L 20.999999999999886 300 M 20.999999999999886 300 M 15.999999999999886 300 L 12.999999999999886 300 M 12.999999999999886 300 M 7.999999999999886 300 L 4.999999999999886 300 M 4.999999999999886 300 M 0 299.9999999999999 L 0 296.9999999999999 M 0 296.9999999999999 M 0 291.9999999999999 L 0 288.9999999999999 M 0 288.9999999999999 M 0 283.9999999999999 L 0 280.9999999999999 M 0 280.9999999999999 M 0 275.9999999999999 L 0 272.9999999999999 M 0 272.9999999999999 M 0 267.9999999999999 L 0 264.9999999999999 M 0 264.9999999999999 M 0 259.9999999999999 L 0 256.9999999999999 M 0 256.9999999999999 M 0 251.9999999999999 L 0 248.9999999999999 M 0 248.9999999999999 M 0 243.9999999999999 L 0 240.9999999999999 M 0 240.9999999999999 M 0 235.9999999999999 L 0 232.9999999999999 M 0 232.9999999999999 M 0 227.9999999999999 L 0 224.9999999999999 M 0 224.9999999999999 M 0 219.9999999999999 L 0 216.9999999999999 M 0 216.9999999999999 M 0 211.9999999999999 L 0 208.9999999999999 M 0 208.9999999999999 M 0 203.9999999999999 L 0 200.9999999999999 M 0 200.9999999999999 M 0 195.9999999999999 L 0 192.9999999999999 M 0 192.9999999999999 M 0 187.9999999999999 L 0 184.9999999999999 M 0 184.9999999999999 M 0 179.9999999999999 L 0 176.9999999999999 M 0 176.9999999999999 M 0 171.9999999999999 L 0 168.9999999999999 M 0 168.9999999999999 M 0 163.9999999999999 L 0 160.9999999999999 M 0 160.9999999999999 M 0 155.9999999999999 L 0 152.9999999999999 M 0 152.9999999999999 M 0 147.9999999999999 L 0 144.9999999999999 M 0 144.9999999999999 M 0 139.9999999999999 L 0 136.9999999999999 M 0 136.9999999999999 M 0 131.9999999999999 L 0 128.9999999999999 M 0 128.9999999999999 M 0 123.99999999999989 L 0 120.99999999999989 M 0 120.99999999999989 M 0 115.99999999999989 L 0 112.99999999999989 M 0 112.99999999999989 M 0 107.99999999999989 L 0 104.99999999999989 M 0 104.99999999999989 M 0 99.99999999999989 L 0 96.99999999999989 M 0 96.99999999999989 M 0 91.99999999999989 L 0 88.99999999999989 M 0 88.99999999999989 M 0 83.99999999999989 L 0 80.99999999999989 M 0 80.99999999999989 M 0 75.99999999999989 L 0 72.99999999999989 M 0 72.99999999999989 M 0 67.99999999999989 L 0 64.99999999999989 M 0 64.99999999999989 M 0 59.999999999999886 L 0 56.999999999999886 M 0 56.999999999999886 M 0 51.999999999999886 L 0 48.999999999999886 M 0 48.999999999999886 M 0 43.999999999999886 L 0 40.999999999999886 M 0 40.999999999999886 M 0 35.999999999999886 L 0 32.999999999999886 M 0 32.999999999999886 M 0 27.999999999999886 L 0 24.999999999999886 M 0 24.999999999999886 M 0 19.999999999999886 L 0 16.999999999999886 M 0 16.999999999999886 M 0 11.999999999999886 L 0 8.999999999999886 M 0 8.999999999999886 M 0 3.9999999999998863 L 0 0.9999999999998863 M 0 0.9999999999998863" stroke-miterlimit="10"/></g></g></g></g></g><g transform="translate(0,0) matrix(1,0,0,1,344,175)"><g><g transform="translate(0,0) scale(1.4,1.25)"><g><path fill="#FFFFFF" stroke="none" d="M 0 0 L 100 0 Q 100 0 100 0 L 100 100 Q 100 100 100 100 L 0 100 Q 0 100 0 100 L 0 0 Q 0 0 0 0 Z"/><g transform="scale(0.7142857142857143,0.8)"><path fill="none" stroke="none" d="M 0 0 L 140 0 Q 140 0 140 0 L 140 125 Q 140 125 140 125 L 0 125 Q 0 125 0 125 L 0 0 Q 0 0 0 0 Z"/><path fill="none" stroke="#8D8D8D" d="M 0 0 M 0 0 L 140 0 Q 140 0 140 0 L 140 125 Q 140 125 140 125 L 0 125 Q 0 125 0 125 L 0 0 Q 0 0 0 0 Z" stroke-miterlimit="10" stroke-width="2"/></g></g><g><g transform="scale(0.7142857142857143,0.8)"><path fill="rgb(0,0,0)" stroke="none" d="M 2.8 2.5 L 2.8 121.25 L 135.79999999999998 121.25 L 135.79999999999998 3.75 L 4.199999999999999 3.75 Z" fill-opacity="0" opacity="0"/><path fill="none" stroke="#3C7626" d="M 2.8 2.5 M 2.8 2.5 L 2.8 6.5 M 2.8 6.5 M 2.8 8.5 L 2.8 12.5 M 2.8 12.5 M 2.8 14.5 L 2.8 18.5 M 2.8 18.5 M 2.8 20.5 L 2.8 24.5 M 2.8 24.5 M 2.8 26.5 L 2.8 30.5 M 2.8 30.5 M 2.8 32.5 L 2.8 36.5 M 2.8 36.5 M 2.8 38.5 L 2.8 42.5 M 2.8 42.5 M 2.8 44.5 L 2.8 48.5 M 2.8 48.5 M 2.8 50.5 L 2.8 54.5 M 2.8 54.5 M 2.8 56.5 L 2.8 60.5 M 2.8 60.5 M 2.8 62.5 L 2.8 66.5 M 2.8 66.5 M 2.8 68.5 L 2.8 72.5 M 2.8 72.5 M 2.8 74.5 L 2.8 78.5 M 2.8 78.5 M 2.8 80.5 L 2.8 84.5 M 2.8 84.5 M 2.8 86.5 L 2.8 90.5 M 2.8 90.5 M 2.8 92.5 L 2.8 96.5 M 2.8 96.5 M 2.8 98.5 L 2.8 102.5 M 2.8 102.5 M 2.8 104.5 L 2.8 108.5 M 2.8 108.5 M 2.8 110.5 L 2.8 114.5 M 2.8 114.5 M 2.8 116.5 L 2.8 120.5 M 2.8 120.5 M 4.05 121.25 L 8.05 121.25 M 8.05 121.25 M 10.05 121.25 L 14.05 121.25 M 14.05 121.25 M 16.05 121.25 L 20.05 121.25 M 20.05 121.25 M 22.05 121.25 L 26.05 121.25 M 26.05 121.25 M 28.05 121.25 L 32.05 121.25 M 32.05 121.25 M 34.05 121.25 L 38.05 121.25 M 38.05 121.25 M 40.05 121.25 L 44.05 121.25 M 44.05 121.25 M 46.05 121.25 L 50.05 121.25 M 50.05 121.25 M 52.05 121.25 L 56.05 121.25 M 56.05 121.25 M 58.05 121.25 L 62.05 121.25 M 62.05 121.25 M 64.05 121.25 L 68.05 121.25 M 68.05 121.25 M 70.05 121.25 L 74.05 121.25 M 74.05 121.25 M 76.05 121.25 L 80.05 121.25 M 80.05 121.25 M 82.05 121.25 L 86.05 121.25 M 86.05 121.25 M 88.05 121.25 L 92.05 121.25 M 92.05 121.25 M 94.05 121.25 L 98.05 121.25 M 98.05 121.25 M 100.05 121.25 L 104.05 121.25 M 104.05 121.25 M 106.05 121.25 L 110.05 121.25 M 110.05 121.25 M 112.05 121.25 L 116.05 121.25 M 116.05 121.25 M 118.05 121.25 L 122.05 121.25 M 122.05 121.25 M 124.05 121.25 L 128.05 121.25 M 128.05 121.25 M 130.05 121.25 L 134.05 121.25 M 134.05 121.25 M 135.79999999999998 120.99999999999997 L 135.79999999999998 116.99999999999997 M 135.79999999999998 116.99999999999997 M 135.79999999999998 114.99999999999997 L 135.79999999999998 110.99999999999997 M 135.79999999999998 110.99999999999997 M 135.79999999999998 108.99999999999997 L 135.79999999999998 104.99999999999997 M 135.79999999999998 104.99999999999997 M 135.79999999999998 102.99999999999997 L 135.79999999999998 98.99999999999997 M 135.79999999999998 98.99999999999997 M 135.79999999999998 96.99999999999997 L 135.79999999999998 92.99999999999997 M 135.79999999999998 92.99999999999997 M 135.79999999999998 90.99999999999997 L 135.79999999999998 86.99999999999997 M 135.79999999999998 86.99999999999997 M 135.79999999999998 84.99999999999997 L 135.79999999999998 80.99999999999997 M 135.79999999999998 80.99999999999997 M 135.79999999999998 78.99999999999997 L 135.79999999999998 74.99999999999997 M 135.79999999999998 74.99999999999997 M 135.79999999999998 72.99999999999997 L 135.79999999999998 68.99999999999997 M 135.79999999999998 68.99999999999997 M 135.79999999999998 66.99999999999997 L 135.79999999999998 62.99999999999997 M 135.79999999999998 62.99999999999997 M 135.79999999999998 60.99999999999997 L 135.79999999999998 56.99999999999997 M 135.79999999999998 56.99999999999997 M 135.79999999999998 54.99999999999997 L 135.79999999999998 50.99999999999997 M 135.79999999999998 50.99999999999997 M 135.79999999999998 48.99999999999997 L 135.79999999999998 44.99999999999997 M 135.79999999999998 44.99999999999997 M 135.79999999999998 42.99999999999997 L 135.79999999999998 38.99999999999997 M 135.79999999999998 38.99999999999997 M 135.79999999999998 36.99999999999997 L 135.79999999999998 32.99999999999997 M 135.79999999999998 32.99999999999997 M 135.79999999999998 30.99999999999997 L 135.79999999999998 26.99999999999997 M 135.79999999999998 26.99999999999997 M 135.79999999999998 24.99999999999997 L 135.79999999999998 20.99999999999997 M 135.79999999999998 20.99999999999997 M 135.79999999999998 18.99999999999997 L 135.79999999999998 14.999999999999972 M 135.79999999999998 14.999999999999972 M 135.79999999999998 12.999999999999972 L 135.79999999999998 8.999999999999972 M 135.79999999999998 8.999999999999972 M 135.79999999999998 6.999999999999972 L 135.79999999999998 3.75 L 135.04999999999995 3.75 M 135.04999999999995 3.75 M 133.04999999999995 3.75 L 129.04999999999995 3.75 M 129.04999999999995 3.75 M 127.04999999999995 3.75 L 123.04999999999995 3.75 M 123.04999999999995 3.75 M 121.04999999999995 3.75 L 117.04999999999995 3.75 M 117.04999999999995 3.75 M 115.04999999999995 3.75 L 111.04999999999995 3.75 M 111.04999999999995 3.75 M 109.04999999999995 3.75 L 105.04999999999995 3.75 M 105.04999999999995 3.75 M 103.04999999999995 3.75 L 99.04999999999995 3.75 M 99.04999999999995 3.75 M 97.04999999999995 3.75 L 93.04999999999995 3.75 M 93.04999999999995 3.75 M 91.04999999999995 3.75 L 87.04999999999995 3.75 M 87.04999999999995 3.75 M 85.04999999999995 3.75 L 81.04999999999995 3.75 M 81.04999999999995 3.75 M 79.04999999999995 3.75 L 75.04999999999995 3.75 M 75.04999999999995 3.75 M 73.04999999999995 3.75 L 69.04999999999995 3.75 M 69.04999999999995 3.75 M 67.04999999999995 3.75 L 63.049999999999955 3.75 M 63.049999999999955 3.75 M 61.049999999999955 3.75 L 57.049999999999955 3.75 M 57.049999999999955 3.75 M 55.049999999999955 3.75 L 51.049999999999955 3.75 M 51.049999999999955 3.75 M 49.049999999999955 3.75 L 45.049999999999955 3.75 M 45.049999999999955 3.75 M 43.049999999999955 3.75 L 39.049999999999955 3.75 M 39.049999999999955 3.75 M 37.049999999999955 3.75 L 33.049999999999955 3.75 M 33.049999999999955 3.75 M 31.049999999999955 3.75 L 27.049999999999955 3.75 M 27.049999999999955 3.75 M 25.049999999999955 3.75 L 21.049999999999955 3.75 M 21.049999999999955 3.75 M 19.049999999999955 3.75 L 15.049999999999955 3.75 M 15.049999999999955 3.75 M 13.049999999999955 3.75 L 9.049999999999955 3.75 M 9.049999999999955 3.75 M 7.0499999999999545 3.75 L 4.199999999999999 3.75 Z" stroke-miterlimit="10" stroke-width="2" opacity="0"/></g></g></g></g></g><g transform="scale(1,1) matrix(1,0,0,1,346,175) translate(2,55.5)"><text fill="#000000" stroke="none" font-family="Arial" font-size="12px" font-style="normal" font-weight="normal" text-decoration="none" x="36.5" y="11">Bingo card</text></g><g transform="translate(0,0) matrix(1,0,0,1,550,175)"><g><g transform="translate(0,0) scale(1.4,1.25)"><g><path fill="#FFFFFF" stroke="none" d="M 0 0 L 100 0 Q 100 0 100 0 L 100 100 Q 100 100 100 100 L 0 100 Q 0 100 0 100 L 0 0 Q 0 0 0 0 Z"/><g transform="scale(0.7142857142857143,0.8)"><path fill="none" stroke="none" d="M 0 0 L 140 0 Q 140 0 140 0 L 140 125 Q 140 125 140 125 L 0 125 Q 0 125 0 125 L 0 0 Q 0 0 0 0 Z"/><path fill="none" stroke="#8D8D8D" d="M 0 0 M 0 0 L 140 0 Q 140 0 140 0 L 140 125 Q 140 125 140 125 L 0 125 Q 0 125 0 125 L 0 0 Q 0 0 0 0 Z" stroke-miterlimit="10" stroke-width="2"/></g></g><g><g transform="scale(0.7142857142857143,0.8)"><path fill="rgb(0,0,0)" stroke="none" d="M 2.8 2.5 L 2.8 121.25 L 135.79999999999998 121.25 L 135.79999999999998 3.75 L 4.199999999999999 3.75 Z" fill-opacity="0" opacity="0"/><path fill="none" stroke="#3C7626" d="M 2.8 2.5 M 2.8 2.5 L 2.8 6.5 M 2.8 6.5 M 2.8 8.5 L 2.8 12.5 M 2.8 12.5 M 2.8 14.5 L 2.8 18.5 M 2.8 18.5 M 2.8 20.5 L 2.8 24.5 M 2.8 24.5 M 2.8 26.5 L 2.8 30.5 M 2.8 30.5 M 2.8 32.5 L 2.8 36.5 M 2.8 36.5 M 2.8 38.5 L 2.8 42.5 M 2.8 42.5 M 2.8 44.5 L 2.8 48.5 M 2.8 48.5 M 2.8 50.5 L 2.8 54.5 M 2.8 54.5 M 2.8 56.5 L 2.8 60.5 M 2.8 60.5 M 2.8 62.5 L 2.8 66.5 M 2.8 66.5 M 2.8 68.5 L 2.8 72.5 M 2.8 72.5 M 2.8 74.5 L 2.8 78.5 M 2.8 78.5 M 2.8 80.5 L 2.8 84.5 M 2.8 84.5 M 2.8 86.5 L 2.8 90.5 M 2.8 90.5 M 2.8 92.5 L 2.8 96.5 M 2.8 96.5 M 2.8 98.5 L 2.8 102.5 M 2.8 102.5 M 2.8 104.5 L 2.8 108.5 M 2.8 108.5 M 2.8 110.5 L 2.8 114.5 M 2.8 114.5 M 2.8 116.5 L 2.8 120.5 M 2.8 120.5 M 4.05 121.25 L 8.05 121.25 M 8.05 121.25 M 10.05 121.25 L 14.05 121.25 M 14.05 121.25 M 16.05 121.25 L 20.05 121.25 M 20.05 121.25 M 22.05 121.25 L 26.05 121.25 M 26.05 121.25 M 28.05 121.25 L 32.05 121.25 M 32.05 121.25 M 34.05 121.25 L 38.05 121.25 M 38.05 121.25 M 40.05 121.25 L 44.05 121.25 M 44.05 121.25 M 46.05 121.25 L 50.05 121.25 M 50.05 121.25 M 52.05 121.25 L 56.05 121.25 M 56.05 121.25 M 58.05 121.25 L 62.05 121.25 M 62.05 121.25 M 64.05 121.25 L 68.05 121.25 M 68.05 121.25 M 70.05 121.25 L 74.05 121.25 M 74.05 121.25 M 76.05 121.25 L 80.05 121.25 M 80.05 121.25 M 82.05 121.25 L 86.05 121.25 M 86.05 121.25 M 88.05 121.25 L 92.05 121.25 M 92.05 121.25 M 94.05 121.25 L 98.05 121.25 M 98.05 121.25 M 100.05 121.25 L 104.05 121.25 M 104.05 121.25 M 106.05 121.25 L 110.05 121.25 M 110.05 121.25 M 112.05 121.25 L 116.05 121.25 M 116.05 121.25 M 118.05 121.25 L 122.05 121.25 M 122.05 121.25 M 124.05 121.25 L 128.05 121.25 M 128.05 121.25 M 130.05 121.25 L 134.05 121.25 M 134.05 121.25 M 135.79999999999998 120.99999999999997 L 135.79999999999998 116.99999999999997 M 135.79999999999998 116.99999999999997 M 135.79999999999998 114.99999999999997 L 135.79999999999998 110.99999999999997 M 135.79999999999998 110.99999999999997 M 135.79999999999998 108.99999999999997 L 135.79999999999998 104.99999999999997 M 135.79999999999998 104.99999999999997 M 135.79999999999998 102.99999999999997 L 135.79999999999998 98.99999999999997 M 135.79999999999998 98.99999999999997 M 135.79999999999998 96.99999999999997 L 135.79999999999998 92.99999999999997 M 135.79999999999998 92.99999999999997 M 135.79999999999998 90.99999999999997 L 135.79999999999998 86.99999999999997 M 135.79999999999998 86.99999999999997 M 135.79999999999998 84.99999999999997 L 135.79999999999998 80.99999999999997 M 135.79999999999998 80.99999999999997 M 135.79999999999998 78.99999999999997 L 135.79999999999998 74.99999999999997 M 135.79999999999998 74.99999999999997 M 135.79999999999998 72.99999999999997 L 135.79999999999998 68.99999999999997 M 135.79999999999998 68.99999999999997 M 135.79999999999998 66.99999999999997 L 135.79999999999998 62.99999999999997 M 135.79999999999998 62.99999999999997 M 135.79999999999998 60.99999999999997 L 135.79999999999998 56.99999999999997 M 135.79999999999998 56.99999999999997 M 135.79999999999998 54.99999999999997 L 135.79999999999998 50.99999999999997 M 135.79999999999998 50.99999999999997 M 135.79999999999998 48.99999999999997 L 135.79999999999998 44.99999999999997 M 135.79999999999998 44.99999999999997 M 135.79999999999998 42.99999999999997 L 135.79999999999998 38.99999999999997 M 135.79999999999998 38.99999999999997 M 135.79999999999998 36.99999999999997 L 135.79999999999998 32.99999999999997 M 135.79999999999998 32.99999999999997 M 135.79999999999998 30.99999999999997 L 135.79999999999998 26.99999999999997 M 135.79999999999998 26.99999999999997 M 135.79999999999998 24.99999999999997 L 135.79999999999998 20.99999999999997 M 135.79999999999998 20.99999999999997 M 135.79999999999998 18.99999999999997 L 135.79999999999998 14.999999999999972 M 135.79999999999998 14.999999999999972 M 135.79999999999998 12.999999999999972 L 135.79999999999998 8.999999999999972 M 135.79999999999998 8.999999999999972 M 135.79999999999998 6.999999999999972 L 135.79999999999998 3.75 L 135.04999999999995 3.75 M 135.04999999999995 3.75 M 133.04999999999995 3.75 L 129.04999999999995 3.75 M 129.04999999999995 3.75 M 127.04999999999995 3.75 L 123.04999999999995 3.75 M 123.04999999999995 3.75 M 121.04999999999995 3.75 L 117.04999999999995 3.75 M 117.04999999999995 3.75 M 115.04999999999995 3.75 L 111.04999999999995 3.75 M 111.04999999999995 3.75 M 109.04999999999995 3.75 L 105.04999999999995 3.75 M 105.04999999999995 3.75 M 103.04999999999995 3.75 L 99.04999999999995 3.75 M 99.04999999999995 3.75 M 97.04999999999995 3.75 L 93.04999999999995 3.75 M 93.04999999999995 3.75 M 91.04999999999995 3.75 L 87.04999999999995 3.75 M 87.04999999999995 3.75 M 85.04999999999995 3.75 L 81.04999999999995 3.75 M 81.04999999999995 3.75 M 79.04999999999995 3.75 L 75.04999999999995 3.75 M 75.04999999999995 3.75 M 73.04999999999995 3.75 L 69.04999999999995 3.75 M 69.04999999999995 3.75 M 67.04999999999995 3.75 L 63.049999999999955 3.75 M 63.049999999999955 3.75 M 61.049999999999955 3.75 L 57.049999999999955 3.75 M 57.049999999999955 3.75 M 55.049999999999955 3.75 L 51.049999999999955 3.75 M 51.049999999999955 3.75 M 49.049999999999955 3.75 L 45.049999999999955 3.75 M 45.049999999999955 3.75 M 43.049999999999955 3.75 L 39.049999999999955 3.75 M 39.049999999999955 3.75 M 37.049999999999955 3.75 L 33.049999999999955 3.75 M 33.049999999999955 3.75 M 31.049999999999955 3.75 L 27.049999999999955 3.75 M 27.049999999999955 3.75 M 25.049999999999955 3.75 L 21.049999999999955 3.75 M 21.049999999999955 3.75 M 19.049999999999955 3.75 L 15.049999999999955 3.75 M 15.049999999999955 3.75 M 13.049999999999955 3.75 L 9.049999999999955 3.75 M 9.049999999999955 3.75 M 7.0499999999999545 3.75 L 4.199999999999999 3.75 Z" stroke-miterlimit="10" stroke-width="2" opacity="0"/></g></g></g></g></g><g transform="scale(1,1) matrix(1,0,0,1,552,175) translate(2,55.5)"><text fill="#000000" stroke="none" font-family="Arial" font-size="12px" font-style="normal" font-weight="normal" text-decoration="none" x="36.5" y="11">Bingo card</text></g><g transform="translate(0,0) matrix(1,0,0,1,460,330)"><g><g transform="translate(0,0) scale(1.4,1.1)"><g><path fill="#FFFFFF" stroke="none" d="M 0 0 L 100 0 Q 100 0 100 0 L 100 100 Q 100 100 100 100 L 0 100 Q 0 100 0 100 L 0 0 Q 0 0 0 0 Z"/><g transform="scale(0.7142857142857143,0.9090909090909091)"><path fill="none" stroke="none" d="M 0 0 L 140 0 Q 140 0 140 0 L 140 110.00000000000001 Q 140 110.00000000000001 140 110.00000000000001 L 0 110.00000000000001 Q 0 110.00000000000001 0 110.00000000000001 L 0 0 Q 0 0 0 0 Z"/><path fill="none" stroke="#8D8D8D" d="M 0 0 M 0 0 L 140 0 Q 140 0 140 0 L 140 110.00000000000001 Q 140 110.00000000000001 140 110.00000000000001 L 0 110.00000000000001 Q 0 110.00000000000001 0 110.00000000000001 L 0 0 Q 0 0 0 0 Z" stroke-miterlimit="10" stroke-width="2"/></g></g><g><g transform="scale(0.7142857142857143,0.9090909090909091)"><path fill="rgb(0,0,0)" stroke="none" d="M 2.8 2.2 L 2.8 106.7 L 135.79999999999998 106.7 L 135.79999999999998 3.3000000000000003 L 4.199999999999999 3.3000000000000003 Z" fill-opacity="0" opacity="0"/><path fill="none" stroke="#3C7626" d="M 2.8 2.2 M 2.8 2.2 L 2.8 6.2 M 2.8 6.2 M 2.8 8.2 L 2.8 12.2 M 2.8 12.2 M 2.8 14.2 L 2.8 18.2 M 2.8 18.2 M 2.8 20.2 L 2.8 24.2 M 2.8 24.2 M 2.8 26.2 L 2.8 30.2 M 2.8 30.2 M 2.8 32.2 L 2.8 36.2 M 2.8 36.2 M 2.8 38.2 L 2.8 42.2 M 2.8 42.2 M 2.8 44.2 L 2.8 48.2 M 2.8 48.2 M 2.8 50.2 L 2.8 54.2 M 2.8 54.2 M 2.8 56.2 L 2.8 60.2 M 2.8 60.2 M 2.8 62.2 L 2.8 66.2 M 2.8 66.2 M 2.8 68.2 L 2.8 72.2 M 2.8 72.2 M 2.8 74.2 L 2.8 78.2 M 2.8 78.2 M 2.8 80.2 L 2.8 84.2 M 2.8 84.2 M 2.8 86.2 L 2.8 90.2 M 2.8 90.2 M 2.8 92.2 L 2.8 96.2 M 2.8 96.2 M 2.8 98.2 L 2.8 102.2 M 2.8 102.2 M 2.8 104.2 L 2.8 106.7 L 4.3 106.7 M 4.3 106.7 M 6.3 106.7 L 10.3 106.7 M 10.3 106.7 M 12.3 106.7 L 16.3 106.7 M 16.3 106.7 M 18.3 106.7 L 22.3 106.7 M 22.3 106.7 M 24.3 106.7 L 28.3 106.7 M 28.3 106.7 M 30.3 106.7 L 34.3 106.7 M 34.3 106.7 M 36.3 106.7 L 40.3 106.7 M 40.3 106.7 M 42.3 106.7 L 46.3 106.7 M 46.3 106.7 M 48.3 106.7 L 52.3 106.7 M 52.3 106.7 M 54.3 106.7 L 58.3 106.7 M 58.3 106.7 M 60.3 106.7 L 64.3 106.7 M 64.3 106.7 M 66.3 106.7 L 70.3 106.7 M 70.3 106.7 M 72.3 106.7 L 76.3 106.7 M 76.3 106.7 M 78.3 106.7 L 82.3 106.7 M 82.3 106.7 M 84.3 106.7 L 88.3 106.7 M 88.3 106.7 M 90.3 106.7 L 94.3 106.7 M 94.3 106.7 M 96.3 106.7 L 100.3 106.7 M 100.3 106.7 M 102.3 106.7 L 106.3 106.7 M 106.3 106.7 M 108.3 106.7 L 112.3 106.7 M 112.3 106.7 M 114.3 106.7 L 118.3 106.7 M 118.3 106.7 M 120.3 106.7 L 124.3 106.7 M 124.3 106.7 M 126.3 106.7 L 130.3 106.7 M 130.3 106.7 M 132.3 106.7 L 135.79999999999998 106.7 L 135.79999999999998 106.19999999999997 M 135.79999999999998 106.19999999999997 M 135.79999999999998 104.19999999999997 L 135.79999999999998 100.19999999999997 M 135.79999999999998 100.19999999999997 M 135.79999999999998 98.19999999999997 L 135.79999999999998 94.19999999999997 M 135.79999999999998 94.19999999999997 M 135.79999999999998 92.19999999999997 L 135.79999999999998 88.19999999999997 M 135.79999999999998 88.19999999999997 M 135.79999999999998 86.19999999999997 L 135.79999999999998 82.19999999999997 M 135.79999999999998 82.19999999999997 M 135.79999999999998 80.19999999999997 L 135.79999999999998 76.19999999999997 M 135.79999999999998 76.19999999999997 M 135.79999999999998 74.19999999999997 L 135.79999999999998 70.19999999999997 M 135.79999999999998 70.19999999999997 M 135.79999999999998 68.19999999999997 L 135.79999999999998 64.19999999999997 M 135.79999999999998 64.19999999999997 M 135.79999999999998 62.199999999999974 L 135.79999999999998 58.199999999999974 M 135.79999999999998 58.199999999999974 M 135.79999999999998 56.199999999999974 L 135.79999999999998 52.199999999999974 M 135.79999999999998 52.199999999999974 M 135.79999999999998 50.199999999999974 L 135.79999999999998 46.199999999999974 M 135.79999999999998 46.199999999999974 M 135.79999999999998 44.199999999999974 L 135.79999999999998 40.199999999999974 M 135.79999999999998 40.199999999999974 M 135.79999999999998 38.199999999999974 L 135.79999999999998 34.199999999999974 M 135.79999999999998 34.199999999999974 M 135.79999999999998 32.199999999999974 L 135.79999999999998 28.199999999999974 M 135.79999999999998 28.199999999999974 M 135.79999999999998 26.199999999999974 L 135.79999999999998 22.199999999999974 M 135.79999999999998 22.199999999999974 M 135.79999999999998 20.199999999999974 L 135.79999999999998 16.199999999999974 M 135.79999999999998 16.199999999999974 M 135.79999999999998 14.199999999999974 L 135.79999999999998 10.199999999999974 M 135.79999999999998 10.199999999999974 M 135.79999999999998 8.199999999999974 L 135.79999999999998 4.199999999999974 M 135.79999999999998 4.199999999999974 M 134.69999999999996 3.3000000000000003 L 130.69999999999996 3.3000000000000003 M 130.69999999999996 3.3000000000000003 M 128.69999999999996 3.3000000000000003 L 124.69999999999996 3.3000000000000003 M 124.69999999999996 3.3000000000000003 M 122.69999999999996 3.3000000000000003 L 118.69999999999996 3.3000000000000003 M 118.69999999999996 3.3000000000000003 M 116.69999999999996 3.3000000000000003 L 112.69999999999996 3.3000000000000003 M 112.69999999999996 3.3000000000000003 M 110.69999999999996 3.3000000000000003 L 106.69999999999996 3.3000000000000003 M 106.69999999999996 3.3000000000000003 M 104.69999999999996 3.3000000000000003 L 100.69999999999996 3.3000000000000003 M 100.69999999999996 3.3000000000000003 M 98.69999999999996 3.3000000000000003 L 94.69999999999996 3.3000000000000003 M 94.69999999999996 3.3000000000000003 M 92.69999999999996 3.3000000000000003 L 88.69999999999996 3.3000000000000003 M 88.69999999999996 3.3000000000000003 M 86.69999999999996 3.3000000000000003 L 82.69999999999996 3.3000000000000003 M 82.69999999999996 3.3000000000000003 M 80.69999999999996 3.3000000000000003 L 76.69999999999996 3.3000000000000003 M 76.69999999999996 3.3000000000000003 M 74.69999999999996 3.3000000000000003 L 70.69999999999996 3.3000000000000003 M 70.69999999999996 3.3000000000000003 M 68.69999999999996 3.3000000000000003 L 64.69999999999996 3.3000000000000003 M 64.69999999999996 3.3000000000000003 M 62.69999999999996 3.3000000000000003 L 58.69999999999996 3.3000000000000003 M 58.69999999999996 3.3000000000000003 M 56.69999999999996 3.3000000000000003 L 52.69999999999996 3.3000000000000003 M 52.69999999999996 3.3000000000000003 M 50.69999999999996 3.3000000000000003 L 46.69999999999996 3.3000000000000003 M 46.69999999999996 3.3000000000000003 M 44.69999999999996 3.3000000000000003 L 40.69999999999996 3.3000000000000003 M 40.69999999999996 3.3000000000000003 M 38.69999999999996 3.3000000000000003 L 34.69999999999996 3.3000000000000003 M 34.69999999999996 3.3000000000000003 M 32.69999999999996 3.3000000000000003 L 28.69999999999996 3.3000000000000003 M 28.69999999999996 3.3000000000000003 M 26.69999999999996 3.3000000000000003 L 22.69999999999996 3.3000000000000003 M 22.69999999999996 3.3000000000000003 M 20.69999999999996 3.3000000000000003 L 16.69999999999996 3.3000000000000003 M 16.69999999999996 3.3000000000000003 M 14.69999999999996 3.3000000000000003 L 10.69999999999996 3.3000000000000003 M 10.69999999999996 3.3000000000000003 M 8.69999999999996 3.3000000000000003 L 4.69999999999996 3.3000000000000003 M 4.69999999999996 3.3000000000000003 Z" stroke-miterlimit="10" stroke-width="2" opacity="0"/></g></g></g></g></g><g transform="scale(1,1) matrix(1,0,0,1,462,330) translate(2,48.00000000000001)"><text fill="#000000" stroke="none" font-family="Arial" font-size="12px" font-style="normal" font-weight="normal" text-decoration="none" x="36.5" y="11">Bingo card</text></g><g transform="translate(0,0) matrix(1,0,0,1,80,430)"><g><g transform="translate(0,0) scale(0.8,0.2)"><g><path fill="none" stroke="none" d="M 10 0 L 90 0 Q 100 0 100 10 L 100 90 Q 100 100 90 100 L 10 100 Q 0 100 0 90 L 0 10 Q 0 0 10 0 Z"/><g transform="scale(1.25,5)"><path fill="url(#Lkn75HFuRlBw)" stroke="none" d="M 10 0 L 70 0 Q 80 0 80 10 L 80 10 Q 80 20 70 20 L 10 20 Q 0 20 0 10 L 0 10 Q 0 0 10 0 Z"/><path fill="url(#Lkn75HFuRlBw)" stroke="#8D8D8D" d="M 10 0 M 10 0 L 70 0 Q 80 0 80 10 L 80 10 Q 80 20 70 20 L 10 20 Q 0 20 0 10 L 0 10 Q 0 0 10 0 Z" stroke-miterlimit="10" stroke-width="2"/></g></g></g></g></g><g transform="scale(1,1) matrix(1,0,0,1,82,430) translate(2,3)"><text fill="rgb(89, 89, 89)" stroke="none" font-family="Arial" font-size="12px" font-style="normal" font-weight="bold" text-decoration="none" x="22" y="11">Start</text></g><g transform="translate(0,0) matrix(1,0,0,1,380,270)"><g><g transform="translate(0,0) scale(0.8,0.2)"><g><path fill="none" stroke="none" d="M 10 0 L 90 0 Q 100 0 100 10 L 100 90 Q 100 100 90 100 L 10 100 Q 0 100 0 90 L 0 10 Q 0 0 10 0 Z"/><g transform="scale(1.25,5)"><path fill="url(#5ROeQF72wxfv)" stroke="none" d="M 10 0 L 70 0 Q 80 0 80 10 L 80 10 Q 80 20 70 20 L 10 20 Q 0 20 0 10 L 0 10 Q 0 0 10 0 Z"/><path fill="url(#5ROeQF72wxfv)" stroke="#8D8D8D" d="M 10 0 M 10 0 L 70 0 Q 80 0 80 10 L 80 10 Q 80 20 70 20 L 10 20 Q 0 20 0 10 L 0 10 Q 0 0 10 0 Z" stroke-miterlimit="10" stroke-width="2"/></g></g></g></g></g><g transform="scale(1,1) matrix(1,0,0,1,382,270) translate(2,3)"><text fill="rgb(89, 89, 89)" stroke="none" font-family="Arial" font-size="12px" font-style="normal" font-weight="bold" text-decoration="none" x="17.5" y="11">Bingo!</text></g><g transform="translate(0,0) matrix(1,0,0,1,580,270)"><g><g transform="translate(0,0) scale(0.8,0.2)"><g><path fill="none" stroke="none" d="M 10 0 L 90 0 Q 100 0 100 10 L 100 90 Q 100 100 90 100 L 10 100 Q 0 100 0 90 L 0 10 Q 0 0 10 0 Z"/><g transform="scale(1.25,5)"><path fill="url(#J40iwI8ltscx)" stroke="none" d="M 10 0 L 70 0 Q 80 0 80 10 L 80 10 Q 80 20 70 20 L 10 20 Q 0 20 0 10 L 0 10 Q 0 0 10 0 Z"/><path fill="url(#J40iwI8ltscx)" stroke="#8D8D8D" d="M 10 0 M 10 0 L 70 0 Q 80 0 80 10 L 80 10 Q 80 20 70 20 L 10 20 Q 0 20 0 10 L 0 10 Q 0 0 10 0 Z" stroke-miterlimit="10" stroke-width="2"/></g></g></g></g></g><g transform="scale(1,1) matrix(1,0,0,1,582,270) translate(2,3)"><text fill="rgb(89, 89, 89)" stroke="none" font-family="Arial" font-size="12px" font-style="normal" font-weight="bold" text-decoration="none" x="17.5" y="11">Bingo!</text></g><g transform="translate(0,0) matrix(1,0,0,1,490,410)"><g><g transform="translate(0,0) scale(0.8,0.2)"><g><path fill="none" stroke="none" d="M 10 0 L 90 0 Q 100 0 100 10 L 100 90 Q 100 100 90 100 L 10 100 Q 0 100 0 90 L 0 10 Q 0 0 10 0 Z"/><g transform="scale(1.25,5)"><path fill="url(#8IMEKeF48vbf)" stroke="none" d="M 10 0 L 70 0 Q 80 0 80 10 L 80 10 Q 80 20 70 20 L 10 20 Q 0 20 0 10 L 0 10 Q 0 0 10 0 Z"/><path fill="url(#8IMEKeF48vbf)" stroke="#8D8D8D" d="M 10 0 M 10 0 L 70 0 Q 80 0 80 10 L 80 10 Q 80 20 70 20 L 10 20 Q 0 20 0 10 L 0 10 Q 0 0 10 0 Z" stroke-miterlimit="10" stroke-width="2"/></g></g></g></g></g><g transform="scale(1,1) matrix(1,0,0,1,492,410) translate(2,3)"><text fill="rgb(89, 89, 89)" stroke="none" font-family="Arial" font-size="12px" font-style="normal" font-weight="bold" text-decoration="none" x="17.5" y="11">Bingo!</text></g></g></svg>